HIERARCHY
ROOT Hips
{
 OFFSET 0.000000 0.000000 0.000000
 CHANNELS 6 Xposition Yposition Zposition Yrotation Xrotation Zrotation
 JOINT Chest
 {
  OFFSET 0.000000 9.585900 0.002600
  CHANNELS 3 Yrotation Xrotation Zrotation
  JOINT Chest2
  {
   OFFSET 0.000000 9.601200 -0.005300
   CHANNELS 3 Yrotation Xrotation Zrotation
   JOINT Chest3
   {
    OFFSET 0.000000 9.561800 0.000000
    CHANNELS 3 Yrotation Xrotation Zrotation
    JOINT Chest4
    {
     OFFSET 0.000000 9.552100 0.000000
     CHANNELS 3 Yrotation Xrotation Zrotation
     JOINT Neck
     {
      OFFSET 0.000000 14.453000 0.000000
      CHANNELS 3 Yrotation Xrotation Zrotation
      JOINT Head
      {
       OFFSET 0.000000 8.936500 -0.011300
       CHANNELS 3 Yrotation Xrotation Zrotation
       End Site
       {
        OFFSET 0.000000 17.073600 -0.006000
       }
      }
     }
     JOINT RightCollar
     {
      OFFSET -2.921100 9.558500 0.000000
      CHANNELS 3 Yrotation Xrotation Zrotation
      JOINT RightShoulder
      {
       OFFSET -13.519700 0.000000 0.000000
       CHANNELS 3 Yrotation Xrotation Zrotation
       JOINT RightElbow
       {
        OFFSET 0.000000 -29.696600 0.000000
        CHANNELS 3 Yrotation Xrotation Zrotation
        JOINT RightWrist
        {
         OFFSET 0.000000 -24.004700 0.000000
         CHANNELS 3 Yrotation Xrotation Zrotation
         End Site
         {
          OFFSET 0.000000 -17.728500 0.000000
         }
        }
       }
      }
     }
     JOINT LeftCollar
     {
      OFFSET 2.921100 9.558500 0.000000
      CHANNELS 3 Yrotation Xrotation Zrotation
      JOINT LeftShoulder
      {
       OFFSET 13.519700 0.000000 0.000000
       CHANNELS 3 Yrotation Xrotation Zrotation
       JOINT LeftElbow
       {
        OFFSET 0.000000 -29.696600 0.000000
        CHANNELS 3 Yrotation Xrotation Zrotation
        JOINT LeftWrist
        {
         OFFSET 0.000000 -24.004700 0.000000
         CHANNELS 3 Yrotation Xrotation Zrotation
         End Site
         {
          OFFSET 0.000000 -17.728500 0.000000
         }
        }
       }
      }
     }
    }
   }
  }
 }
 JOINT RightHip
 {
  OFFSET -7.771700 -0.012900 -0.001300
  CHANNELS 3 Yrotation Xrotation Zrotation
  JOINT RightKnee
  {
   OFFSET 0.000000 -40.869800 0.001200
   CHANNELS 3 Yrotation Xrotation Zrotation
   JOINT RightAnkle
   {
    OFFSET 0.000000 -39.717900 0.002100
    CHANNELS 3 Yrotation Xrotation Zrotation
    JOINT RightToe
    {
     OFFSET 0.000000 -4.965400 11.033500
     CHANNELS 3 Yrotation Xrotation Zrotation
     End Site
     {
      OFFSET 0.000000 -1.423100 5.872300
     }
    }
   }
  }
 }
 JOINT LeftHip
 {
  OFFSET 7.771700 -0.012900 -0.001300
  CHANNELS 3 Yrotation Xrotation Zrotation
  JOINT LeftKnee
  {
   OFFSET 0.000000 -40.869800 0.001200
   CHANNELS 3 Yrotation Xrotation Zrotation
   JOINT LeftAnkle
   {
    OFFSET 0.000000 -39.717900 0.002100
    CHANNELS 3 Yrotation Xrotation Zrotation
    JOINT LeftToe
    {
     OFFSET 0.000000 -4.965400 11.033500
     CHANNELS 3 Yrotation Xrotation Zrotation
     End Site
     {
      OFFSET 0.000000 -1.423100 5.872300
     }
    }
   }
  }
 }
}
MOTION
Frames: 9
Frame Time: 0.008333
0.000000 85.388000 0.000000 0.000000 -5.767877 0.000000 0.000000 11.653817 0.000000 0.000000 -5.885947 0.000000 0.000000 -0.000000 0.000000 0.000000 -0.000000 0.000000 0.000000 12.528835 0.000000 0.000000 0.711642 0.000000 0.000000 -0.000000 0.000000 0.000000 0.000000 -90.000000 0.000000 -2.309062 0.000000 0.000000 2.309062 0.000000 0.000000 -0.000000 0.000000 0.000000 -0.000000 90.000000 0.000000 -2.309062 0.000000 0.000000 2.309062 0.000000 0.000000 8.520406 0.000000 0.000000 1.905762 0.000000 -0.000000 -4.658285 0.000000 0.000000 -0.000000 0.000000 0.000000 8.520406 0.000000 0.000000 1.905762 0.000000 -0.000000 -4.658285 0.000000 0.000000 -0.000000 0.000000
-233.427668 57.658755 22.508770 173.313743 -47.899732 -2.876630 4.539552 22.399358 3.430820 2.356716 12.837406 1.728113 3.027749 16.034317 2.259670 2.356775 12.837351 1.728056 0.545954 16.320255 2.320832 0.195934 -5.464824 4.106475 2.470116 2.010592 0.685207 -2.727026 -18.019267 -8.313375 -31.716086 -33.846057 78.713887 -5.327898 -6.820948 -5.695062 -10.948578 -1.729342 -1.077220 1.584106 -15.604617 10.445524 27.954367 -26.265727 -77.139801 6.930180 -8.472577 19.024921 5.854715 -24.334993 -0.629468 -40.529335 73.321796 -44.036698 4.378003 -13.546351 11.743398 -0.009359 -0.068933 0.001486 -8.814444 -21.456326 9.768900 54.916497 81.798575 57.647807 0.333502 -18.502507 -22.745544 0.030013 0.047190 0.014201
-233.429183 57.658675 22.509525 173.311050 -47.897760 -2.874399 4.539942 22.388517 3.433241 2.355636 12.838661 1.729207 3.026077 16.030249 2.260930 2.355384 12.834185 1.729161 0.544677 16.328710 2.315139 0.196023 -5.464345 4.102100 2.472180 2.023331 0.678926 -2.728669 -18.017269 -8.310891 -31.707040 -33.847853 78.700602 -5.331760 -6.825667 -5.690650 -10.949085 -1.720623 -1.085785 1.582379 -15.612259 10.450954 27.946872 -26.248395 -77.121783 6.938039 -8.474456 19.031142 5.855201 -24.337631 -0.629925 -40.522389 73.320685 -44.032949 4.372301 -13.538957 11.745792 -0.012667 -0.070835 0.000129 -8.811453 -21.458590 9.769616 54.915682 81.796901 57.647254 0.328872 -18.503615 -22.744053 0.032636 0.047172 0.014210
-233.430021 57.659012 22.510046 173.311885 -47.899126 -2.879133 4.540817 22.387228 3.437866 2.357354 12.822913 1.733082 3.027101 16.034409 2.262485 2.356951 12.829813 1.731632 0.541764 16.329959 2.311336 0.191252 -5.454867 4.099802 2.475673 2.029547 0.676717 -2.736618 -18.008763 -8.302606 -31.680959 -33.847182 78.676236 -5.333594 -6.838817 -5.695649 -10.960299 -1.718798 -1.092704 1.589510 -15.607136 10.452166 27.934703 -26.238759 -77.104574 6.946960 -8.475949 19.032000 5.848084 -24.334460 -0.620490 -40.516800 73.316110 -44.032979 4.364628 -13.535263 11.750224 -0.011021 -0.069415 -0.002383 -8.811082 -21.456657 9.775145 54.915930 81.795305 57.647963 0.328843 -18.505440 -22.743211 0.032192 0.049474 0.013651
-233.431189 57.658849 22.510861 173.314434 -47.897126 -2.883252 4.539204 22.382442 3.440432 2.357804 12.820850 1.733301 3.028749 16.024215 2.266291 2.357632 12.825716 1.733171 0.539578 16.330205 2.306052 0.189023 -5.454477 4.090545 2.479237 2.036511 0.676377 -2.743981 -17.998827 -8.299546 -31.669961 -33.844983 78.664564 -5.324396 -6.840459 -5.695748 -10.968800 -1.713246 -1.093069 1.600999 -15.604648 10.445807 27.918094 -26.219999 -77.086877 6.947357 -8.482860 19.031184 5.845362 -24.335197 -0.618534 -40.507369 73.314562 -44.026743 4.367321 -13.532683 11.752725 -0.013035 -0.068890 -0.003003 -8.809916 -21.460592 9.780317 54.927188 81.788044 57.662241 0.319356 -18.502745 -22.743328 0.036165 0.045732 0.015088
-233.432747 57.658665 22.511406 173.322904 -47.895688 -2.888585 4.534438 22.375237 3.439008 2.356511 12.822100 1.734480 3.027537 16.014915 2.267613 2.356365 12.821982 1.734448 0.539637 16.330123 2.301655 0.190664 -5.474143 4.071642 2.488997 2.041320 0.675363 -2.744730 -17.994116 -8.289122 -31.660477 -33.841350 78.642833 -5.325663 -6.852898 -5.704183 -10.967285 -1.706132 -1.096148 1.606042 -15.603389 10.443576 27.906215 -26.202668 -77.076375 6.948142 -8.487344 19.036482 5.840738 -24.335324 -0.619814 -40.499480 73.314907 -44.022455 4.362641 -13.530110 11.758306 -0.006320 -0.066531 -0.004402 -8.813404 -21.464195 9.780477 54.929961 81.787052 57.667230 0.314693 -18.504524 -22.741847 0.038710 0.045810 0.014289
-233.432863 57.658398 22.511972 173.328544 -47.894218 -2.899365 4.534706 22.366939 3.446458 2.355509 12.817618 1.735375 3.026373 16.009599 2.268622 2.355537 12.817652 1.735512 0.538634 16.308608 2.295302 0.187799 -5.453271 4.066068 2.494106 2.031399 0.678469 -2.739690 -17.968421 -8.290202 -31.659376 -33.839127 78.630190 -5.330193 -6.856713 -5.708087 -10.963559 -1.701310 -1.097262 1.606802 -15.594549 10.439804 27.896012 -26.185791 -77.065780 6.948217 -8.490734 19.041282 5.835446 -24.336386 -0.614546 -40.494146 73.314860 -44.016722 4.371691 -13.528457 11.759053 -0.013348 -0.068423 -0.006078 -8.818538 -21.468269 9.791055 54.941050 81.790899 57.680679 0.312105 -18.504515 -22.744197 0.041023 0.041739 0.016258
-233.433449 57.657858 22.512304 173.326595 -47.891837 -2.900334 4.532709 22.355538 3.445458 2.355777 12.813544 1.737186 3.026802 16.004272 2.271033 2.361614 12.792135 1.739179 0.532085 16.341629 2.289630 0.186571 -5.465070 4.056328 2.489496 2.062133 0.675634 -2.732203 -17.959740 -8.288877 -31.659432 -33.835623 78.619146 -5.336201 -6.854235 -5.715187 -10.966082 -1.663132 -1.110646 1.605070 -15.592648 10.440320 27.889974 -26.173809 -77.057464 6.945852 -8.493939 19.042104 5.836008 -24.340387 -0.610086 -40.503945 73.311504 -44.029504 4.371080 -13.524433 11.761745 -0.016357 -0.069317 -0.005699 -8.817553 -21.471641 9.795328 54.947182 81.792873 57.688065 0.317105 -18.507976 -22.749080 0.038697 0.044727 0.018951
-233.433941 57.657306 22.512229 173.324627 -47.890150 -2.900325 4.536302 22.349154 3.449321 2.356695 12.808389 1.738410 3.027924 15.998042 2.272252 2.359475 12.785829 1.740266 0.529763 16.352647 2.286939 0.184529 -5.476462 4.046033 2.486298 2.077914 0.675389 -2.729720 -17.955403 -8.288822 -31.658400 -33.832991 78.616407 -5.338843 -6.847687 -5.716579 -10.965157 -1.653592 -1.112075 1.599980 -15.591657 10.439761 27.884688 -26.154484 -77.048503 6.940716 -8.497980 19.038911 5.837645 -24.343286 -0.609836 -40.512347 73.310564 -44.037226 4.375489 -13.523967 11.763142 -0.018581 -0.067009 -0.007432 -8.816802 -21.473882 9.797601 54.957172 81.795267 57.699257 0.321678 -18.511772 -22.751048 0.039254 0.046183 0.018672
